<?xml version="1.0" standalone="no"?>
<!DOCTYPE svg PUBLIC "-//W3C//DTD SVG 20010904//EN"
 "http://www.w3.org/TR/2001/REC-SVG-20010904/DTD/svg10.dtd">
<svg version="1.0" xmlns="http://www.w3.org/2000/svg"
 width="100.000000pt" height="100.000000pt" viewBox="0 0 100.000000 100.000000"
 preserveAspectRatio="xMidYMid meet">
<metadata>
Created by potrace 1.14, written by Peter Selinger 2001-2017
</metadata>
<g transform="translate(0.000000,100.000000) scale(0.100000,-0.100000)"
fill="#000000" stroke="none">
<path d="M733 822 c-158 -131 -199 -167 -283 -252 -47 -47 -103 -109 -124
-137 -26 -35 -49 -54 -69 -59 -16 -3 -47 -24 -68 -45 -44 -44 -50 -82 -24
-146 27 -65 35 -67 59 -21 16 33 29 44 58 52 49 14 78 40 78 69 0 16 14 33 45
56 54 38 212 194 282 276 189 225 191 227 175 253 -19 30 -49 19 -129 -46z
m86 11 c-7 -10 -27 -34 -44 -54 -16 -19 -41 -49 -54 -65 -164 -198 -355 -380
-387 -367 -19 7 -18 14 9 48 66 85 134 155 237 245 41 36 80 70 88 77 7 7 34
29 60 50 26 21 58 48 72 61 30 26 37 28 19 5z m-515 -512 c27 -29 16 -54 -29
-69 -22 -7 -49 -22 -61 -33 l-22 -20 -4 30 c-5 35 18 78 54 97 32 18 42 17 62
-5z"/>
</g>
</svg>
